<svg xmlns="http://www.w3.org/2000/svg" viewBox="0 0 240.9 240.9" style="enable-background:new 0 0 240.9 240.9" xml:space="preserve"><path d="M120.9 236.8c-3.6 0-7-1.8-8.8-5.2l-11.4-19.2c-23.3-39.4-45.4-76.8-52.9-91.8-5.4-11.2-8.3-23.3-8.3-35.8 0-44.9 36.6-81.4 81.4-81.4s81.4 36.6 81.4 81.4c0 12.4-2.9 24.4-8.3 35.5 0 .3-.3.3-.3.5-7.8 15.3-29.6 52.4-52.9 91.6l-11.2 19.2c-1.7 3.4-5.1 5.2-8.7 5.2z" style="fill:#2c84c6"/><path d="M120.9 25.9c-30.9 0-56 25.2-56 56s25.2 56 56 56 56-25.2 56-56-25.2-56-56-56z" style="fill:#bde3f2"/><path d="m149.7 90 3.4-3.4c.5-.5.8-1.3.8-1.8 0-.8-.3-1.3-.8-1.8l-2.6-2.6c-1-1-2.6-1-3.6 0l-.5.5-1.8-4.7c4.7-4.7 7.8-9.1 9.9-12.7 2.6-4.9 2.6-9.1-.3-11.7-4.7-4.7-13-1.3-24.4 9.6l-4.7-1.8.5-.5c.5-.5.8-1.3.8-1.8 0-.8-.3-1.3-.8-1.8l-2.6-2.6c-1-1-2.9-1-3.6 0l-3.4 3.4-11.7-4.7c-2.1-.8-4.7-.5-6.5 1l-4.4 3.6c-.8.5-1 1.3-1 2.1s.5 1.6 1 2.1l22 17.1c-3.4 4.1-6.7 8.6-9.6 13-.8 1-1.6 2.3-2.1 3.1L94.4 89c-1.6-.8-3.4-.5-4.7.5l-2.6 2.1c-.5.5-1 1-1 1.8s.3 1.6 1 1.8l10.6 8.3c-1.3 3.1-.5 3.9-.3 4.1.3.3.5.5 1.3.5.5 0 1.6-.3 2.9-.8L110 118c.5.5 1 .8 1.8.8s1.6-.3 1.8-1l2.1-2.9c1-1.3 1-3.1.5-4.7l-3.9-8.3c1-.8 2.1-1.3 3.1-2.1 4.4-2.9 8.8-6.2 13-9.6l17.1 22c.5.8 1.3 1 2.1 1s1.6-.3 2.1-1l3.6-4.4c1.6-1.8 1.8-4.1 1-6.5 0 .1-4.6-11.3-4.6-11.3z" style="fill:#0d5d93"/></svg>