<svg xmlns="http://www.w3.org/2000/svg" viewBox="0 0 208.5 49.8" style="enable-background:new 0 0 208.5 49.8" xml:space="preserve"><path d="M23.4 45.7c-.6 0-1.3-.3-1.6-.9l-2-3.4c-4.2-7-8.1-13.7-9.4-16.4-1-2-1.5-4.2-1.5-6.4 0-8 6.5-14.5 14.5-14.5s14.5 6.5 14.5 14.5c0 2.2-.5 4.4-1.5 6.3 0 .1-.1.1-.1.1-1.4 2.7-5.3 9.4-9.4 16.4l-2 3.4c-.3.6-.9.9-1.5.9z" style="fill:#2c84c6"/><path d="M23.4 8.1c-5.5 0-10 4.5-10 10s4.5 10 10 10 10-4.5 10-10-4.5-10-10-10z" style="fill:#bde3f2"/><path d="m28.5 19.5.6-.6c.1-.1.1-.2.1-.3 0-.1-.1-.2-.1-.3l-.5-.5c-.2-.2-.5-.2-.6 0l-.1.1-.3-.8c.8-.8 1.4-1.6 1.8-2.3.5-.9.5-1.6-.1-2.1-.8-.8-2.3-.2-4.4 1.7l-.8-.3.1-.1c.1-.1.1-.2.1-.3 0-.1-.1-.2-.1-.3l-.5-.5c-.2-.2-.5-.2-.6 0l-.6.6-2.1-.8c-.4-.1-.8-.1-1.2.2l-.8.6c-.1.1-.2.2-.2.4 0 .1.1.3.2.4l3.9 3.1c-.6.7-1.2 1.5-1.7 2.3-.1.2-.3.4-.4.6l-1.7-.8c-.3-.1-.6-.1-.8.1l-.5.4c-.1.1-.2.2-.2.3 0 .1.1.3.2.3l1.9 1.5c-.2.6-.1.7-.1.7.1.1.1.1.2.1s.3-.1.5-.1l1.5 1.9c.1.1.2.1.3.1.1 0 .3-.1.3-.2l.4-.5c.2-.2.2-.6.1-.8l-.7-1.5c.2-.1.4-.2.6-.4.8-.5 1.6-1.1 2.3-1.7l3.1 3.9c.1.1.2.2.4.2.1 0 .3-.1.4-.2l.6-.8c.3-.3.3-.7.2-1.2.1 0-.7-2.1-.7-2.1z" style="fill:#0d5d93"/><g><path d="M72.6 43.2c0 .2-.2.3-.6.3-.3 0-.7 0-1.3-.1-.6 0-1-.1-1.3-.1-.3 0-.8 0-1.4.1-.6 0-1.1.1-1.4.1-.4 0-1-1.2-1.7-3.6-.7-2.4-1.4-3.6-2.1-3.7H49.9c-.6 0-1.2 1.3-1.8 3.7s-1.1 3.6-1.5 3.6h-5.4c-.3 0-.5-.1-.5-.3 0-.2.1-.5.3-1.1l5.8-16c.5-1.3 2-5 4.5-11.1.4-1 1.1-2.6 1.8-4.6.2-.6.4-.9.6-.9.3 0 .7 0 1.3.1.6.1 1 .1 1.3.1.3 0 .7 0 1.3-.1.6-.1 1-.1 1.3-.1.1 0 .3.3.6.9.4.9 2.3 5.7 5.7 14.4 5 12.1 7.4 18.3 7.4 18.4zM61.4 30c0-.5-.7-2.5-2.1-6.2-1.4-3.6-2.4-5.9-2.9-7-3.3 8.4-4.9 12.8-4.9 13.2 0 .5.6.9 1.8 1H58c2.3 0 3.4-.3 3.4-1zM81.4 14.9c0 2-1.1 2.9-3.3 2.9-2.2 0-3.3-1-3.3-2.9 0-.9.3-1.6 1-2.2.6-.5 1.4-.8 2.3-.8.9 0 1.7.3 2.3.8.7.6 1 1.4 1 2.2zm-.1 6.5c0 1.2-.1 3.1-.2 5.6-.2 2.5-.2 4.3-.2 5.6 0 1.2 0 2.9.1 5.2 0 2.3.1 4 .1 5.2 0 .3-.1.5-.4.5H76c-.3 0-.5-.3-.5-1 0-1.1 0-2.7.1-5 .1-2.2.1-3.9.1-5 0-1.2-.1-3.1-.3-5.6-.2-2.5-.3-4.3-.3-5.6 0-.3.2-.4.5-.4s.7 0 1.3.1c.6.1 1 .1 1.3.1.3 0 .8 0 1.3-.1.6-.1 1-.1 1.3-.1.3 0 .5.2.5.5zM99.6 21.1c0 1.8-.1 3.3-.4 4.8 0 .4-.2.5-.5.5s-.8 0-1.5-.1-1.2-.1-1.5-.1c-2 0-3.3.6-3.8 1.7-.3.7-.5 2.1-.5 4.3v2.6c0 .9 0 2.2.1 4.1.1 1.8.1 3.2.1 4.1 0 .4-.2.6-.5.6h-4.4c-.4 0-.5-.2-.5-.6 0-1.3 0-3.2.1-5.8 0-2.6.1-4.5.1-5.8 0-3.9-.4-7.1-1.1-9.5v-.3c0-.2.1-.3.3-.4.6-.1 1.4-.2 2.5-.3 1.7-.3 2.5-.5 2.4-.5.3 0 .4.5.5 1.4.1.9.2 1.4.4 1.4h.1c.7-.4 1.3-.8 2-1.2.7-.4 1.4-.7 2.2-1 .6-.2 1.4-.3 2.4-.3.9-.1 1.5 0 1.5.4zM129.4 22.4c0 3.7-1 6.7-3 9-2.1 2.3-5 3.5-8.7 3.5-.9 0-2.3 0-4.1-.1-1.8-.1-3.2-.1-4.1-.1-.5 0-.8.3-.8 1 0 .8.1 2.1.2 3.8.1 1.7.2 3 .2 3.8 0 .3-.2.4-.5.4s-.8 0-1.5-.1-1.2-.1-1.5-.1c-.3 0-.7 0-1.3.1-.6 0-1 .1-1.2.1-.4 0-.6-.2-.6-.7 0-1.7.1-4.4.2-7.9s.2-6.1.2-7.9c0-5-.2-10.3-.5-16v-.4c0-.3.2-.5.6-.5h7.8c.7 0 1.9 0 3.4-.1s2.6-.1 3.4-.1c3.5 0 6.4 1.2 8.7 3.6 2 2.2 3.1 5.1 3.1 8.7zm-6.1.3c0-2.4-.6-4.3-1.9-5.7-1.3-1.5-3.2-2.2-5.5-2.2-.7 0-2 .1-3.9.2-2.1.1-3.3.3-3.3.4-.1.2-.2 2.9-.2 8.2 0 .7 0 1.7.1 3s.1 2.3.1 3c0 .1.2.3.5.3.9.2 3.3.3 7.3.3 2.2 0 4-.7 5.2-2.1 1.1-1.4 1.6-3.1 1.6-5.4zM146.4 21.1c0 1.8-.1 3.3-.4 4.8 0 .4-.2.5-.5.5s-.8 0-1.5-.1-1.2-.1-1.5-.1c-2 0-3.3.6-3.8 1.7-.3.7-.5 2.1-.5 4.3v2.6c0 .9 0 2.2.1 4.1.1 1.8.1 3.2.1 4.1 0 .4-.2.6-.5.6h-4.4c-.4 0-.5-.2-.5-.6 0-1.3 0-3.2.1-5.8 0-2.6.1-4.5.1-5.8 0-3.9-.4-7.1-1.1-9.5v-.3c0-.2.1-.3.3-.4.6-.1 1.4-.2 2.5-.3 1.7-.3 2.5-.5 2.4-.5.3 0 .4.5.5 1.4.1.9.2 1.4.4 1.4h.1c.7-.4 1.3-.8 2-1.2.7-.4 1.4-.7 2.2-1 .6-.2 1.4-.3 2.4-.3.9-.1 1.5 0 1.5.4zM155.3 14.9c0 2-1.1 2.9-3.3 2.9-2.2 0-3.3-1-3.3-2.9 0-.9.3-1.6 1-2.2.6-.5 1.4-.8 2.3-.8.9 0 1.7.3 2.3.8.6.6 1 1.4 1 2.2zm-.2 6.5c0 1.2-.1 3.1-.2 5.6-.2 2.5-.2 4.3-.2 5.6 0 1.2 0 2.9.1 5.2 0 2.3.1 4 .1 5.2 0 .3-.1.5-.4.5h-4.7c-.3 0-.5-.3-.5-1 0-1.1 0-2.7.1-5 .1-2.2.1-3.9.1-5 0-1.2-.1-3.1-.3-5.6-.2-2.5-.3-4.3-.3-5.6 0-.3.2-.4.5-.4s.7 0 1.3.1c.6.1 1 .1 1.3.1s.8 0 1.3-.1c.6-.1 1-.1 1.3-.1.4 0 .5.2.5.5zM176.5 21.8c0 .4-.2 1.1-.5 2.3-.4 1.2-.6 1.8-.8 1.8-.7-.3-1.4-.6-2.2-1-.7-.3-1.5-.5-2.4-.5-2 0-3.6.7-4.9 2.2-1.3 1.4-2 3.2-2 5.1 0 1.9.7 3.6 2 5 1.3 1.5 3 2.2 4.9 2.2 1.1 0 2.1-.3 3.2-.8s1.5-.8 1.4-.8c.2 0 .4.7.7 2 .2 1.2.4 2 .4 2.5s-.9 1-2.8 1.5c-1.6.4-2.7.6-3.5.6-3.3 0-6-1.2-8.3-3.7-2.2-2.4-3.3-5.2-3.3-8.5 0-3.4 1.1-6.2 3.2-8.6 2.2-2.4 5-3.6 8.3-3.6 2.2 0 4.3.6 6.1 1.7.3.3.5.5.5.6zM199.7 30.7c0 1.2-.5 2-1.5 2.4-.7.3-5.6.7-14.8 1.4.2 1.4 1 2.6 2.3 3.6 1.3.9 2.6 1.4 4.1 1.4 2.5 0 4.8-.8 6.9-2.4.3-.2.5-.4.8-.6h.3s.3.6.9 1.7c.6 1.1.8 1.7.8 1.7 0 .1-.1.3-.4.5-2.3 2.5-5.3 3.7-9 3.7s-6.6-1.1-8.8-3.3c-2.2-2.2-3.3-5.1-3.3-8.8 0-3.3 1.1-6.1 3.2-8.6 2.2-2.5 4.9-3.8 8.1-3.8 3 0 5.5 1.1 7.5 3.3 1.9 2.1 2.9 4.7 2.9 7.8zm-5.7-1.5c0-1.3-.5-2.5-1.6-3.5-1-1-2.2-1.5-3.5-1.5-1.5 0-2.8.6-3.9 1.8-1.1 1.2-1.7 2.5-1.7 4 0 .3.3.5.9.5 2.4 0 5.2-.2 8.5-.7.9-.2 1.3-.4 1.3-.6z"/></g></svg>