<?xml version="1.0" standalone="no"?>
<!DOCTYPE svg PUBLIC "-//W3C//DTD SVG 20010904//EN"
 "http://www.w3.org/TR/2001/REC-SVG-20010904/DTD/svg10.dtd">
<svg version="1.0" xmlns="http://www.w3.org/2000/svg"
 width="700.000000pt" height="700.000000pt" viewBox="0 0 700.000000 700.000000"
 preserveAspectRatio="xMidYMid meet">
<metadata>
Created by potrace 1.14, written by Peter Selinger 2001-2017
</metadata>
<g transform="translate(0.000000,700.000000) scale(0.100000,-0.100000)"
fill="#000000" stroke="none">
<path d="M3329 6896 c-2 -2 -33 -6 -69 -10 -272 -26 -606 -127 -845 -256 -140
-76 -302 -185 -425 -286 -70 -58 -249 -241 -312 -319 -256 -319 -425 -687
-493 -1075 -8 -47 -17 -101 -21 -120 -10 -57 -13 -481 -4 -535 4 -27 11 -77
14 -110 16 -145 103 -440 179 -610 88 -196 384 -726 795 -1425 47 -80 113
-192 147 -250 34 -58 73 -125 87 -150 14 -25 67 -114 117 -198 50 -85 91 -156
91 -158 0 -3 5 -10 10 -17 6 -7 67 -109 137 -227 110 -188 417 -708 443 -750
5 -8 29 -49 53 -90 84 -141 151 -185 282 -185 85 0 141 20 193 68 20 18 125
187 209 337 11 19 80 136 153 260 73 124 140 239 150 255 9 17 45 77 80 135
35 58 74 125 88 150 13 25 31 52 38 61 8 8 14 18 14 21 0 3 54 97 120 208 66
110 120 205 120 211 0 5 5 9 10 9 6 0 10 4 10 9 0 7 49 94 91 161 33 53 129
223 129 228 0 3 6 13 14 21 7 9 25 36 38 61 14 25 85 149 158 275 73 127 144
250 158 275 23 42 79 140 123 217 66 117 207 381 249 468 104 218 186 517 208
755 9 101 8 344 -1 454 -9 99 -38 263 -68 376 -218 820 -865 1464 -1693 1685
-51 13 -108 27 -127 30 -19 4 -72 13 -119 22 -76 13 -519 29 -531 19z"/>
</g>
</svg>
